<svg xmlns="http://www.w3.org/2000/svg" width="256" height="256"><path fill="#FFF" fill-opacity=".016" fill-rule="evenodd" d="M0 128.004v128.004l128.25-.254 128.25-.254.254-127.75L257.008 0H0v128.004m.485.496c0 70.4.119 99.053.265 63.672.146-35.38.146-92.98 0-128C.604 29.153.485 58.1.485 128.5"/><path fill="#FFF" fill-opacity=".299" fill-rule="evenodd" d="M83.447 20.397C69.89 24.665 55.68 36.487 50.266 48c-4.73 10.06-6.52 22.393-4.355 30l.712 2.5 1.301-2.394c2.489-4.582 9.528-11.301 14.536-13.879 7.332-3.772 20.629-4.325 28.921-1.201 6.802 2.563 12.651 7.467 16.269 13.64L110.19 81h22.405C152.46 81 155 80.819 155 79.401c0-3.121 3.384-8.664 6.42-10.515 1.86-1.135 4.948-1.88 7.795-1.882 3.848-.003 5.364.565 8.238 3.089 1.989 1.746 4.032 4.793 4.693 7L183.317 81H204V18.932l-10.68.284-10.68.284-.768 2.881c-3.233 12.117-22.506 12.117-25.745 0l-.77-2.881-33.929-.19c-25.184-.141-34.973.139-37.981 1.087M115.4 47.4c-5.959 5.959-5.117 6.6 8.659 6.6 6.632 0 11.899-.337 11.703-.75-3.495-7.359-6.114-9.25-12.812-9.25-3.386 0-4.776.626-7.55 3.4M47.55 87.86c.522.473 6.361 2.986 12.975 5.585l12.024 4.726 20.891 32.415C104.93 148.414 114.481 163 114.665 163c.184 0 .335-17.1.335-38V87H80.8c-19.154 0-33.782.378-33.25.86m102.117-.193c-.926.925-.843 73.339.083 73.309.412-.014 9.75-13.999 20.75-31.08 11-17.08 20.45-31.402 21-31.827.55-.426 6.175-2.715 12.5-5.089 6.325-2.373 11.927-4.69 12.45-5.148.522-.457-14.14-.832-32.583-.832-18.444 0-33.834.3-34.2.667m36.154 74.358c-2.449 2.449-2.896 3.545-2.345 5.75 1.068 4.279 3.42 6.225 7.524 6.225s6.456-1.946 7.524-6.225c.551-2.205.104-3.301-2.345-5.75-1.664-1.664-3.994-3.025-5.179-3.025s-3.515 1.361-5.179 3.025m57 0c-2.449 2.449-2.896 3.545-2.345 5.75 1.068 4.279 3.42 6.225 7.524 6.225 3.705 0 5.136-1.059 7.75-5.736 1.51-2.702 1.59-3.592.25-2.764-.55.34-1-.051-1-.868 0-1.941-4.726-5.632-7.212-5.632-1.068 0-3.303 1.361-4.967 3.025M1 167.51c0 2.662 22.137 45.754 23.036 44.842C25.373 210.997 47 168.429 47 167.152c0-.788-2.993-1.152-9.48-1.152h-9.479l-2.116 4.147-2.116 4.148-2.184-3.898-2.183-3.897-9.221-.288C2.351 165.967 1 166.157 1 167.51M80 189v23h15v-46H80v23m84.706-22.373c-.388.388-.706 10.756-.706 23.04V212h16.038l-.269-22.75-.269-22.75-7.044-.29c-3.874-.159-7.361.029-7.75.417m-58.956 8.172c-8.274 6.3-8.75 6.868-8.75 10.432 0 3.102.354 3.769 2 3.769 1.832 0 2 .667 2 7.935 0 4.364.431 9.068.957 10.452 1.808 4.754 10.857 7.155 17.478 4.638 2.321-.883 2.565-1.495 2.565-6.434 0-5.211-.125-5.472-2.75-5.775-2.565-.295-2.77-.669-3.052-5.566l-.303-5.25H122v-12h-3c-2.889 0-3-.167-3-4.5 0-2.475-.338-4.469-.75-4.432-.412.038-4.687 3.066-9.5 6.731m-54.72 2.784c-7.032 3.05-11.04 9.284-11.014 17.127.05 14.53 16.087 23.086 28.098 14.992 9.681-6.524 11.277-18.631 3.61-27.364-5.42-6.173-13.267-7.976-20.694-4.755m84.47.079c-7.4 3.901-10.643 9.032-10.643 16.838 0 8.185 3.743 13.764 11.375 16.952 8.655 3.617 18.999-.263 23.434-8.79.812-1.562 1.477-5.234 1.477-8.162 0-2.928-.665-6.6-1.477-8.162-4.505-8.661-16.217-12.867-24.166-8.676m83.25-.215c-1.512.789-2.75 1.011-2.75.494 0-.518-3.15-.941-7-.941h-7v35h16v-10.573c0-9.531.173-10.541 1.75-10.239 1.508.289 1.789 1.752 2.035 10.574L222.07 212H237v-13.032c0-14.835-1.129-18.949-5.872-21.402-3.771-1.95-8.776-1.998-12.378-.119M183 194.5V212h16v-35h-16v17.5m57 0V212h16v-35h-16v17.5m-183.8-2.3c-2.462 2.462-.038 6.443 3.173 5.21 2.086-.8 2.118-5.007.045-5.803-2.014-.773-1.816-.809-3.218.593m85.05-.538c-1.718.694-1.571 3.826.25 5.338 1.846 1.532 4.5-.246 4.5-3.015 0-1.368-2.312-3.384-3.332-2.906-.092.043-.73.306-1.418.583M15.667 220.667c-.367.366-.667 4.191-.667 8.5 0 6.296.294 7.833 1.5 7.833 1.048 0 1.5-1.056 1.5-3.5 0-3.333.167-3.5 3.5-3.5s3.5.167 3.5 3.5c0 2.485.447 3.5 1.54 3.5 1.287 0 1.493-1.361 1.25-8.25-.286-8.143-1.986-11.407-2.603-5-.287 2.975-.604 3.25-3.75 3.25-3.261 0-3.437-.179-3.437-3.5 0-3.309-.839-4.328-2.333-2.833m19.648.34c-4.76 1.918-5.946 10.112-2.001 13.819 3.266 3.068 9.015 2.936 12.231-.281 3.441-3.44 3.262-7.892-.468-11.622-2.969-2.969-5.779-3.521-9.762-1.916m16.26.16c-.234.733-.717 3.583-1.072 6.333-.356 2.75-.888 6.012-1.183 7.25-.391 1.637-.09 2.25 1.103 2.25 1.801 0 2.112-.647 3.071-6.392l.65-3.891 2.449 5.287c1.347 2.908 2.721 5.016 3.052 4.685.331-.332 1.619-2.76 2.862-5.396l2.26-4.793.745 5.25c.607 4.272 1.107 5.25 2.684 5.25 1.374 0 1.79-.51 1.428-1.75-.28-.963-.818-4-1.195-6.75-.793-5.792-2.118-8.81-3.495-7.959-.531.328-2.029 2.689-3.329 5.246l-2.363 4.65-2.371-4.918c-2.416-5.012-4.53-6.749-5.296-4.352m21.139-.547c-.393.392-.714 4.238-.714 8.547V237h5c3.778 0 5-.367 5-1.5 0-1.048-1.056-1.5-3.5-1.5-2.833 0-3.5-.381-3.5-2 0-1.556.667-2 3-2 2 0 3-.5 3-1.5s-1-1.5-3-1.5c-4.231 0-4.013-2.776.25-3.187 4.915-.473 4.313-3.235-.786-3.61-2.22-.163-4.358.024-4.75.417m17.974.026c-.379.378-.688 4.212-.688 8.521 0 7.218.16 7.833 2.04 7.833 1.912 0 2.022-.518 1.75-8.17-.266-7.485-1.238-10.049-3.102-8.184m7.826.604C97.933 222.969 96 234.064 96 235.684c0 1.852 2.66 1.644 3.393-.266.334-.87.607-2.643.607-3.941 0-4.077 1.565-3.552 3.932 1.32l2.283 4.699 2.742-5.411 2.742-5.411.685 5.163c.5 3.773 1.114 5.163 2.28 5.163 1.36 0 1.493-.895.905-6.093-.793-7.012-2.066-10.907-3.564-10.907-.574 0-2.087 2.363-3.362 5.25l-2.319 5.25-2.679-5.25c-2.636-5.166-4.298-6.462-5.131-4m21.236-.671c-.412.415-.75 4.279-.75 8.588 0 6.296.294 7.833 1.5 7.833.903 0 1.5-.925 1.5-2.324 0-1.85.759-2.512 3.73-3.25 4.917-1.221 6.727-5.413 3.661-8.48-2.117-2.117-8.365-3.651-9.641-2.367m13.917.088c-.367.366-.667 4.191-.667 8.5 0 6.296.294 7.833 1.5 7.833 1 0 1.5-1 1.5-3 0-3.865 2.002-3.862 4.203.006.937 1.647 2.4 2.994 3.25 2.994 1.967 0 1.954-.974-.053-3.839-1.473-2.104-1.464-2.433.119-4.182 2.319-2.562 1.215-6.749-2.112-8.014-2.935-1.116-6.775-1.264-7.74-.298m17.353.617c-7.534 3.812-4.827 15.716 3.573 15.716 4.617 0 6.279-.852 7.944-4.072 2.17-4.196 1.798-6.747-1.46-10.005-3.146-3.146-6.121-3.63-10.057-1.639m13.59-.461c-.316.51.832 4.38 2.55 8.598 2.268 5.568 3.564 7.586 4.728 7.362 1.723-.332 7.923-15.305 6.802-16.426-1.137-1.137-3.324 1.505-4.702 5.679-.738 2.235-1.655 4.258-2.038 4.495-.383.237-1.582-1.899-2.664-4.747-1.933-5.088-3.543-6.796-4.676-4.961m17.104-.203c-.393.392-.714 4.238-.714 8.547V237h5c3.778 0 5-.367 5-1.5 0-1.048-1.056-1.5-3.5-1.5-2.795 0-3.5-.39-3.5-1.937 0-1.454.81-2.014 3.25-2.25 1.787-.172 3.25-.763 3.25-1.313 0-.55-1.463-1.141-3.25-1.313-4.655-.449-4.378-3.187.323-3.187 2.863 0 3.508-.348 3.242-1.75-.239-1.258-1.465-1.834-4.36-2.047-2.215-.163-4.349.024-4.741.417m13.8.63c-.581 1.719-2.514 12.814-2.514 14.434 0 .724.623 1.316 1.383 1.316 1.449 0 2.58-2.932 2.603-6.75.023-3.654 1.722-2.582 3.567 2.25.945 2.475 2.048 4.5 2.45 4.5.401 0 1.758-2.363 3.015-5.25l2.284-5.25.925 5.25c.607 3.442 1.416 5.25 2.349 5.25 1.698 0 1.72-3.199.078-10.926-1.528-7.186-3.215-7.521-5.897-1.172-1.185 2.804-2.402 5.087-2.705 5.074-.304-.013-1.536-2.263-2.738-5-2.13-4.848-3.944-6.256-4.8-3.726M216 228.445V237h5c3.778 0 5-.367 5-1.5 0-1.048-1.056-1.5-3.5-1.5-2.833 0-3.5-.381-3.5-2 0-1.556.667-2 3-2 2 0 3-.5 3-1.5s-1-1.5-3-1.5c-4.231 0-4.013-2.776.25-3.187 2.083-.2 3.25-.852 3.25-1.813 0-1.08-1.33-1.585-4.75-1.805l-4.75-.305v8.555m12.667-7.778c-.367.366-.667 4.191-.667 8.5 0 6.296.294 7.833 1.5 7.833 1.079 0 1.533-1.192 1.618-4.25.066-2.338.066-4.588 0-5-.257-1.629.866-.54 4.382 4.25 5.441 7.412 6.644 6.79 6.29-3.25-.326-9.272-2.121-11.228-2.598-2.832l-.308 5.418-4.021-5.668c-3.959-5.581-4.877-6.321-6.196-5.001m16 0C243.29 222.043 244.073 224 246 224c1.795 0 2 .667 2 6.5s.205 6.5 2 6.5 2-.667 2-6.5.205-6.5 2-6.5c1.333 0 2-.667 2-2 0-1.75-.667-2-5.333-2-2.934 0-5.634.3-6 .667m-208.444 3.89c-2.593 1.815-2.907 5.616-.652 7.872 3.973 3.972 10.538-.381 8.532-5.658-.84-2.21-2.895-3.771-4.962-3.771-.383 0-1.696.701-2.918 1.557m115.996.002c-2.445 1.713-3.007 6.253-1.019 8.241.66.66 2.37 1.2 3.8 1.2 3.295 0 5.004-1.697 4.985-4.95-.03-4.899-3.948-7.165-7.766-4.491M122 226.361c0 1.98.404 2.284 2.5 1.884 1.613-.309 2.5-1.147 2.5-2.362 0-1.342-.718-1.883-2.5-1.883-1.961 0-2.5.509-2.5 2.361m14-.361c0 1.467.667 2 2.5 2s2.5-.533 2.5-2-.667-2-2.5-2-2.5.533-2.5 2"/><path fill="#FFF" fill-opacity=".574" fill-rule="evenodd" d="M85.275 20.463c-9.47 2.688-17.429 7.468-24.855 14.926-10.809 10.857-14.789 20.943-14.215 36.025l.295 7.766 3.194-4.539c13.813-19.634 46.165-19.095 57.921.964L110.19 80H155v-2.465c0-3.511 5.466-9.295 10.093-10.681 7.409-2.22 16.094 2.832 17.572 10.222l.559 2.796 9.89.314 9.89.314-.002-30.25L203 20H183.385l-1.743 3.949c-3.25 7.368-12.135 10.178-19.658 6.216-2.857-1.504-5.785-5.3-7.232-9.373-.139-.39-14.652-.957-32.252-1.26-26.498-.457-32.898-.297-37.225.931m32.024 24.497c-2.975 1.813-6.299 6.558-6.299 8.99 0 .677 4.439 1.05 12.5 1.05 11.532 0 12.5-.144 12.5-1.865 0-2.506-3.521-6.836-7.039-8.655-3.896-2.015-7.838-1.853-11.662.48M60 92.624c6.325 2.472 12.225 5.255 13.112 6.185.886.93 10.283 15.191 20.882 31.691 10.598 16.5 19.436 30.188 19.638 30.417.202.229.368-16.084.368-36.25V88l-32.75.065-32.75.065L60 92.624m90.012 31.626.012 36.25 5.974-9.275c3.286-5.101 12.471-19.276 20.412-31.5L190.849 97.5l11.575-4.431c6.367-2.437 11.576-4.574 11.576-4.75 0-.175-14.4-.319-32-.319h-32l.012 36.25M186 162c-2.698 2.698-2.556 7.129.314 9.826 3.003 2.82 6.782 2.765 9.512-.14 4.33-4.61 1.407-11.686-4.826-11.686-1.667 0-3.889.889-5 2m57 0c-2.698 2.698-2.556 7.129.314 9.826 3.003 2.82 6.782 2.765 9.512-.14 4.33-4.61 1.407-11.686-4.826-11.686-1.667 0-3.889.889-5 2M1 167.579c0 1.878 22.385 44.426 23.015 43.747.423-.454 5.805-10.613 11.962-22.576L47.171 167h-19.13l-2.164 4.241-2.163 4.24-2.054-4.24L19.606 167h-9.303c-5.117 0-9.303.261-9.303.579M80 189.5V212h14v-45H80v22.5m85 0V212h14v-45h-14v22.5m-58.75-14.431c-8.027 6.061-9.25 7.377-9.25 9.957 0 2.307.448 2.974 2 2.974 1.819 0 2.009.7 2.1 7.75.055 4.262.403 8.834.773 10.16 1.448 5.175 8.776 7.757 16.377 5.771 2.525-.66 2.75-1.117 2.75-5.592 0-4.363-.261-4.938-2.5-5.5-2.318-.581-2.5-1.062-2.5-6.608 0-5.713.112-5.981 2.5-5.981 2.364 0 2.5-.3 2.5-5.5 0-5.167-.148-5.5-2.445-5.5-2.182 0-2.478-.479-2.75-4.457l-.305-4.457-9.25 6.983m-51.75 1.86c-4.397 1.061-6.966 2.648-9.865 6.094-7.144 8.489-5.252 20.275 4.287 26.703 4.16 2.804 12.567 3.085 17.812.596C71.837 207.9 76 200.911 76 194.764c0-5.737-2.783-11.762-6.727-14.566-2.39-1.699-9.778-4.379-11.273-4.09-.275.053-1.85.423-3.5.821m84.264.036c-5.307 1.658-9.632 5.13-11.693 9.388-3.486 7.201-2.49 14.456 2.743 19.986C133.741 210.49 137.259 212 143 212c13.703 0 21.918-13.274 15.904-25.698-3.341-6.903-13.243-11.493-20.14-9.337m81.736.55c-2.405.858-4.133 1.04-4.333.456-.184-.534-3.221-.971-6.75-.971H203v35h14v-9.8c0-9.84.86-12.575 3.622-11.515 1.049.403 1.378 3.021 1.378 10.966v10.437l7.25-.294 7.25-.294-.039-13.604c-.045-15.348-.932-17.941-7.007-20.48-4.057-1.695-3.922-1.696-8.954.099M184 194.5V212h14v-35h-14v17.5m57 0V212h14v-35h-14v17.5m-185.616-2.058c-1.065 2.775.072 5.058 2.521 5.058 3.154 0 4.941-2.776 3.165-4.916-1.642-1.978-4.95-2.061-5.686-.142m84.546.142c-1.754 2.113-.004 4.916 3.07 4.916s4.824-2.803 3.07-4.916c-.723-.871-2.105-1.584-3.07-1.584-.965 0-2.347.713-3.07 1.584M15.208 228.67c.191 5.027.723 7.812 1.542 8.083.844.279 1.25-.749 1.25-3.17 0-3.416.16-3.583 3.437-3.583 3.127 0 3.464.285 3.75 3.173.172 1.745.876 3.358 1.563 3.583.931.306 1.25-1.654 1.25-7.673 0-6.518-.29-8.083-1.5-8.083-1 0-1.5 1-1.5 3 0 2.762-.278 3-3.5 3s-3.5-.238-3.5-3c0-2.036-.495-3-1.542-3-1.281 0-1.493 1.3-1.25 7.67m17.865-5.035c-6.249 7.944 3.833 17.847 11.316 11.115 2.365-2.128 2.992-3.966 2.726-8-.379-5.76-10.241-7.947-14.042-3.115m18.569-.343c-.317 1.26-.877 4.86-1.246 8-.834 7.093 1.153 7.97 2.17.958.995-6.861 1.375-6.972 4.059-1.177 1.33 2.87 2.689 4.947 3.02 4.616.331-.332 1.613-2.76 2.848-5.396l2.247-4.793.717 4c1.106 6.163 1.591 7.5 2.724 7.5.675 0 .81-1.687.382-4.75-1.868-13.364-2.72-14.119-6.765-6l-2.616 5.25-2.224-5.25c-2.368-5.589-4.376-6.706-5.316-2.958m20.566 5.458.292 7.75h4.417c2.644 0 4.584-.502 4.833-1.25.282-.845-.744-1.25-3.167-1.25-2.916 0-3.583-.372-3.583-2 0-1.568.667-2 3.083-2 3.826 0 3.483-2.356-.41-2.816-4.024-.477-3.734-4.184.327-4.184 1.65 0 3-.45 3-1s-2.044-1-4.542-1h-4.542l.292 7.75M91 229c0 4.667.417 8 1 8s1-3.333 1-8-.417-8-1-8-1 3.333-1 8m7.543-5.75c-1.637 7.433-2.182 12.855-1.344 13.373 1.334.825 1.484.492 2.543-5.623l.953-5.5 2.402 5.226c1.322 2.875 2.647 5.237 2.946 5.25.299.013 1.717-2.339 3.152-5.226l2.608-5.25.73 5.272c.663 4.781 1.871 7.157 3.044 5.984.245-.245-.091-3.89-.745-8.1-1.436-9.234-2.905-9.8-6.237-2.406l-2.365 5.25-2.365-5.226c-2.519-5.567-4.513-6.7-5.322-3.024M119 229.083c0 6.019.319 7.979 1.25 7.673.688-.226 1.392-1.613 1.566-3.083.257-2.168.833-2.673 3.05-2.673 3.433 0 5.134-1.657 5.134-5 0-3.686-1.761-5-6.7-5H119v8.083m14 0c0 6.019.319 7.979 1.25 7.673.688-.226 1.392-1.613 1.566-3.083.422-3.559 2.759-3.396 4.684.327 1.594 3.083 3.5 4.008 3.5 1.7 0-.715-.551-1.851-1.225-2.525-.967-.967-.967-1.639 0-3.186 1.561-2.5 1.573-6.241.025-7.789-.66-.66-3.135-1.2-5.5-1.2H133v8.083m16.174-5.769c-6.908 7.354 3.231 17.875 11.191 11.613 3.362-2.644 3.693-8.869.635-11.927-2.862-2.862-8.995-2.699-11.826.314m15.902-1.147c.144 2.505 5.421 14.18 6.582 14.56.64.209 2.055-1.995 3.161-4.924 1.102-2.917 2.482-6.541 3.067-8.053.837-2.161.778-2.75-.275-2.75-.737 0-2.135 2.137-3.107 4.75-.972 2.613-2.089 5.109-2.483 5.548-.394.439-1.614-1.562-2.71-4.447-1.857-4.888-4.408-7.709-4.235-4.684M182 229v8h4.5c3.333 0 4.5-.389 4.5-1.5 0-1.048-1.056-1.5-3.5-1.5-2.833 0-3.5-.381-3.5-2 0-1.556.667-2 3-2 2 0 3-.5 3-1.5s-1-1.5-3-1.5c-2.333 0-3-.444-3-2 0-1.619.667-2 3.5-2 1.925 0 3.5-.45 3.5-1s-2.025-1-4.5-1H182v8m13.686-7.25c-.237.412-.746 3-1.13 5.75-.385 2.75-.956 6.071-1.269 7.38-.417 1.744-.199 2.257.816 1.919.762-.254 1.891-2.9 2.51-5.88l1.125-5.419 2.33 5.25c1.281 2.887 2.634 5.25 3.007 5.25.373 0 1.717-2.363 2.987-5.25l2.308-5.25 1.071 5.419c.589 2.98 1.694 5.626 2.456 5.88 1.014.338 1.233-.176.818-1.919-.312-1.309-.877-4.968-1.256-8.13-.878-7.325-2.857-7.583-5.743-.75-1.162 2.75-2.361 4.989-2.664 4.976-.304-.013-1.536-2.263-2.738-5-2.031-4.622-3.583-6.04-4.628-4.226M216 229v8h4.5c3.333 0 4.5-.389 4.5-1.5 0-1-1-1.5-3-1.5-3.955 0-4.37-3.696-.469-4.184 1.392-.174 2.531-.766 2.531-1.316s-1.139-1.142-2.531-1.316c-3.901-.488-3.486-4.184.469-4.184 1.65 0 3-.45 3-1s-2.025-1-4.5-1H216v8m13 0c0 9.069 1.742 10.958 2.2 2.385l.3-5.615 4 5.592c2.2 3.075 4.45 5.453 5 5.284.55-.168 1.131-3.758 1.292-7.976.238-6.259.018-7.67-1.198-7.67-1.091 0-1.57 1.399-1.792 5.23l-.302 5.229-3.748-5.229c-2.062-2.877-4.199-5.23-4.75-5.23-.586 0-1.002 3.324-1.002 8m15-7c0 .55 1.125 1 2.5 1 2.429 0 2.5.2 2.5 7 0 4 .429 7 1 7s1-3 1-7c0-6.8.071-7 2.5-7 1.375 0 2.5-.45 2.5-1 0-.556-2.667-1-6-1s-6 .444-6 1m-208.434 2.328c-2.567 1.877-2.327 6.637.448 8.885 5.445 4.409 12.355-3.854 7.157-8.558-2.207-1.998-5.147-2.124-7.605-.327M122 226c0 2.268.458 3 1.878 3 2.859 0 4.68-2.623 3.122-4.5-.685-.825-2.09-1.5-3.122-1.5-1.42 0-1.878.732-1.878 3m14-.5c0 2.008.498 2.5 2.531 2.5 2.88 0 4.472-2.751 2.365-4.086-2.74-1.734-4.896-1.036-4.896 1.586m15-.5c-2.264 2.264-2.435 3.319-.977 6.043 1.646 3.076 4.483 4.139 7.444 2.79 3.319-1.512 4.235-5.113 2.12-8.34-2.002-3.056-5.806-3.274-8.587-.493"/><path fill="#FFF" fill-opacity=".546" fill-rule="evenodd" d="M16 228.5c0 4.333.422 7.5 1 7.5.55 0 1-1.602 1-3.56 0-3.503.061-3.556 3.75-3.25 3.419.283 3.805.619 4.368 3.81.398 2.252.619.648.619-4.5s-.221-6.752-.619-4.5c-.563 3.191-.949 3.527-4.368 3.81-3.689.306-3.75.253-3.75-3.25 0-1.958-.45-3.56-1-3.56-.578 0-1 3.167-1 7.5m18.114-5.75c-5.744 4.769-2.111 13.76 5.474 13.545 4.672-.133 7.412-3.028 7.412-7.833 0-6.143-8.063-9.717-12.886-5.712m17.487 2.5a374.16 374.16 0 0 1-1.239 7.5c-.339 1.886-.166 3.25.413 3.25.549 0 1.406-2.588 1.904-5.75l.907-5.75 3.038 5.88 3.038 5.881 2.281-5.621c1.255-3.091 2.621-5.41 3.036-5.153.416.257.988 2.525 1.271 5.039.489 4.334 1.275 6.315 2.139 5.391.764-.817-1.927-14.263-2.92-14.594-.557-.186-2.149 2.253-3.539 5.42l-2.527 5.757-2.646-5.75c-1.456-3.162-3.064-5.75-3.574-5.75-.51 0-1.222 1.912-1.582 4.25M73 228.5v7.5l4.25-.132 4.25-.131-3.5-.619c-2.902-.512-3.5-1.045-3.5-3.118 0-2.081.587-2.597 3.5-3.077l3.5-.576-3.5-.424c-2.692-.325-3.5-.885-3.5-2.423 0-1.525.771-2.074 3.25-2.313C82.38 222.74 81.783 221 77 221h-4v7.5m18 0c0 4.333.422 7.5 1 7.5.578 0 1-3.167 1-7.5s-.422-7.5-1-7.5c-.578 0-1 3.167-1 7.5m7.103-1.168c-1.324 7.599-1.356 8.668-.265 8.668.461 0 1.278-2.588 1.816-5.75l.978-5.75 2.738 5.9 2.738 5.901 2.818-5.901 2.818-5.9.715 4c1.053 5.889 1.584 7.5 2.472 7.5.438 0 .397-2.363-.091-5.25-2.017-11.937-2.489-12.246-6.113-4l-2.527 5.75-2.588-5.75c-1.423-3.162-2.996-5.75-3.497-5.75-.5 0-1.406 2.849-2.012 6.332m21.51.73c.097 3.884.45 7.334.782 7.667.333.332.605-.596.605-2.062 0-2.282.423-2.667 2.929-2.667 3.292 0 6.071-2.251 6.071-4.916 0-2.733-3.289-5.084-7.111-5.084h-3.454l.178 7.062M133 226.918c0 7.258 1.166 11.141 1.98 6.594.74-4.13 3.5-4.419 5.488-.574.871 1.684 2.074 3.062 2.673 3.062.63 0 .375-1.09-.604-2.585-1.545-2.357-1.555-2.737-.115-4.328 3.764-4.16.92-8.087-5.856-8.087H133v5.918m16.455-3.463c-5.88 5.879.525 15.191 8.529 12.401C166.022 233.054 163.601 221 155 221c-1.948 0-3.998.907-5.545 2.455m15.978-.705c3.654 9.885 5.235 13.25 6.224 13.25.643 0 2.332-3.047 3.756-6.771 2.803-7.336 2.998-8.229 1.794-8.229-.436 0-1.642 2.499-2.68 5.552-1.038 3.054-2.204 5.748-2.59 5.987-.387.239-1.711-2.26-2.942-5.552-1.231-3.293-2.682-5.987-3.224-5.987-.542 0-.694.787-.338 1.75M182 228.5v7.5l4.75-.168c4.352-.154 4.436-.201 1-.56-3.373-.353-3.75-.682-3.75-3.269 0-2.496.43-2.93 3.25-3.28l3.25-.403-3.25-.16c-2.757-.136-3.25-.539-3.25-2.66 0-2.111.467-2.5 3-2.5 1.65 0 3-.45 3-1s-1.8-1-4-1h-4v7.5m13.664-5.25c-1.466 5.972-1.931 13.033-.813 12.342.632-.391 1.194-1.921 1.249-3.401.055-1.48.446-3.816.869-5.191.72-2.34.915-2.163 3.034 2.75 1.245 2.887 2.598 5.25 3.007 5.25.409 0 1.782-2.363 3.051-5.25l2.307-5.25 1.225 5.326c1.664 7.233 2.835 7.925 1.987 1.174-.894-7.106-1.622-10-2.517-10-.397 0-1.775 2.25-3.063 5-1.288 2.75-2.66 5-3.048 5-.388 0-1.674-2.25-2.857-5-2.347-5.457-3.578-6.221-4.431-2.75M216 228.5v7.5l4.75-.132c4.469-.124 4.543-.168 1.25-.75-2.897-.512-3.5-1.047-3.5-3.108 0-1.958.642-2.628 3-3.132l3-.641-3.25-.119c-2.768-.1-3.25-.488-3.25-2.618 0-2.19.433-2.5 3.5-2.5 1.925 0 3.5-.45 3.5-1s-2.025-1-4.5-1H216v7.5m13 0c0 8.708 1.757 10.198 2.2 1.866l.3-5.634 3.872 5.634c2.129 3.099 4.267 5.634 4.75 5.634.483 0 .878-3.375.878-7.5 0-8.708-1.757-10.198-2.2-1.866l-.3 5.634-3.872-5.634c-2.129-3.099-4.267-5.634-4.75-5.634-.483 0-.878 3.375-.878 7.5m15-6.5c0 .55 1.125 1 2.5 1 2.41 0 2.5.233 2.5 6.5 0 3.667.436 6.5 1 6.5.564 0 1-2.833 1-6.5 0-6.267.09-6.5 2.5-6.5 1.375 0 2.5-.45 2.5-1 0-.556-2.667-1-6-1s-6 .444-6 1m-209.345 2.829c-2.225 2.459-2.087 5.739.345 8.171 2.403 2.403 4.786 2.538 7.777.443 2.64-1.848 2.984-6.539.652-8.872-2.122-2.121-6.744-1.986-8.774.258M121 226c0 2.925.209 3.107 3.25 2.813 2.716-.262 3.25-.723 3.25-2.813 0-2.09-.534-2.551-3.25-2.813-3.041-.294-3.25-.112-3.25 2.813m14 0c0 2.925.209 3.107 3.25 2.813 2.716-.262 3.25-.723 3.25-2.813 0-2.09-.534-2.551-3.25-2.813-3.041-.294-3.25-.112-3.25 2.813m15.655-1.171c-2.225 2.459-2.087 5.739.345 8.171 2.403 2.403 4.786 2.538 7.777.443 2.64-1.848 2.984-6.539.652-8.872-2.122-2.121-6.744-1.986-8.774.258"/></svg>